<svg width="228" height="41" viewBox="0 0 228 41" fill="none" xmlns="http://www.w3.org/2000/svg">
<path d="M13.8848 12.5H9.64844L7.83789 12.7109L6.73047 13.8359L6.4668 15.3125V24.2422L6.73047 25.7188L7.87305 26.8262L9.64844 27.0371H13.8848L15.9414 26.791L15.502 24.8926L13.8496 25.1738H9.75391L8.59375 24.998L8.34766 23.9434V15.4883L8.52344 14.5215L9.75391 14.3281H13.7793L15.5898 14.627L15.9414 12.7461L13.8848 12.5ZM14.1133 10.918C15.2969 10.918 16.3691 11.0938 17.3301 11.4453C18.291 11.7969 19.1055 12.2773 19.7734 12.8867C20.4531 13.4961 20.9746 14.2109 21.3379 15.0312C21.7012 15.8398 21.8828 16.7012 21.8828 17.6152V28.3027C21.8828 29.2168 21.7012 30.084 21.3379 30.9043C20.9746 31.7129 20.4531 32.4219 19.7734 33.0312C19.1055 33.6406 18.291 34.1211 17.3301 34.4727C16.3691 34.8242 15.2969 35 14.1133 35H8.69922C7.51562 35 6.44336 34.8242 5.48242 34.4727C4.52148 34.1211 3.70117 33.6406 3.02148 33.0312C2.35352 32.4219 1.83789 31.7129 1.47461 30.9043C1.11133 30.084 0.929688 29.2168 0.929688 28.3027V17.6152C0.929688 16.7012 1.11133 15.8398 1.47461 15.0312C1.83789 14.2109 2.35352 13.4961 3.02148 12.8867C3.70117 12.2773 4.52148 11.7969 5.48242 11.4453C6.44336 11.0938 7.51562 10.918 8.69922 10.918H14.1133ZM34.9258 10.918C36.1094 10.918 37.1816 11.0938 38.1426 11.4453C39.1035 11.7969 39.918 12.2773 40.5859 12.8867C41.2656 13.4961 41.7871 14.2109 42.1504 15.0312C42.5137 15.8398 42.6953 16.7012 42.6953 17.6152V28.3027C42.6953 29.2168 42.5137 30.084 42.1504 30.9043C41.7871 31.7129 41.2656 32.4219 40.5859 33.0312C39.918 33.6406 39.1035 34.1211 38.1426 34.4727C37.1816 34.8242 36.1094 35 34.9258 35H29.5117C28.3281 35 27.2559 34.8242 26.2949 34.4727C25.334 34.1211 24.5137 33.6406 23.834 33.0312C23.166 32.4219 22.6504 31.7129 22.2871 30.9043C21.9238 30.084 21.7422 29.2168 21.7422 28.3027V17.6152C21.7422 16.7012 21.9238 15.8398 22.2871 15.0312C22.6504 14.2109 23.166 13.4961 23.834 12.8867C24.5137 12.2773 25.334 11.7969 26.2949 11.4453C27.2559 11.0938 28.3281 10.918 29.5117 10.918H34.9258ZM35.8223 22.6953V27.0371H37.6855V22.502L37.0703 20.8848L35.0664 20.1641L37 19.2324L37.5449 17.6504V15.6992L37.334 14.2227L36.1738 12.7461L34.416 12.5H27.8594V27.0371H29.7402V21.1836H34.3105L35.5586 21.7461L35.8223 22.6953ZM34.3105 14.3633L35.5586 14.9082L35.6816 15.9277V17.791L35.418 18.7578L34.3105 19.3027H29.7402V14.3633H34.3105ZM55.7383 10.918C56.9219 10.918 57.9941 11.0938 58.9551 11.4453C59.916 11.7969 60.7305 12.2773 61.3984 12.8867C62.0781 13.4961 62.5996 14.2109 62.9629 15.0312C63.3262 15.8398 63.5078 16.7012 63.5078 17.6152V28.3027C63.5078 29.2168 63.3262 30.084 62.9629 30.9043C62.5996 31.7129 62.0781 32.4219 61.3984 33.0312C60.7305 33.6406 59.916 34.1211 58.9551 34.4727C57.9941 34.8242 56.9219 35 55.7383 35H50.3242C49.1406 35 48.0684 34.8242 47.1074 34.4727C46.1465 34.1211 45.3262 33.6406 44.6465 33.0312C43.9785 32.4219 43.4629 31.7129 43.0996 30.9043C42.7363 30.084 42.5547 29.2168 42.5547 28.3027V17.6152C42.5547 16.7012 42.7363 15.8398 43.0996 15.0312C43.4629 14.2109 43.9785 13.4961 44.6465 12.8867C45.3262 12.2773 46.1465 11.7969 47.1074 11.4453C48.0684 11.0938 49.1406 10.918 50.3242 10.918H55.7383ZM59.2539 12.5H57.3906V24.0137C57.3672 24.166 57.3262 24.3301 57.2676 24.5059C57.2207 24.6816 57.1738 24.8457 57.127 24.998L55.9844 25.1738H51.4844L50.3242 24.998L50.0781 23.9434V12.5H48.25V24.207L48.4609 25.7188L49.6035 26.8262L51.3789 27.0371H56.0898L57.8828 26.8262L59.0078 25.7188L59.2539 24.207V12.5ZM76.5508 10.918C77.7344 10.918 78.8066 11.0938 79.7676 11.4453C80.7285 11.7969 81.543 12.2773 82.2109 12.8867C82.8906 13.4961 83.4121 14.2109 83.7754 15.0312C84.1387 15.8398 84.3203 16.7012 84.3203 17.6152V28.3027C84.3203 29.2168 84.1387 30.084 83.7754 30.9043C83.4121 31.7129 82.8906 32.4219 82.2109 33.0312C81.543 33.6406 80.7285 34.1211 79.7676 34.4727C78.8066 34.8242 77.7344 35 76.5508 35H71.1367C69.9531 35 68.8809 34.8242 67.9199 34.4727C66.959 34.1211 66.1387 33.6406 65.459 33.0312C64.791 32.4219 64.2754 31.7129 63.9121 30.9043C63.5488 30.084 63.3672 29.2168 63.3672 28.3027V17.6152C63.3672 16.7012 63.5488 15.8398 63.9121 15.0312C64.2754 14.2109 64.791 13.4961 65.459 12.8867C66.1387 12.2773 66.959 11.7969 67.9199 11.4453C68.8809 11.0938 69.9531 10.918 71.1367 10.918H76.5508ZM80.207 15.3477L79.9609 13.8711L78.8535 12.7461L77.043 12.5H69.2031V27.0371H77.043L78.8535 26.8262L79.9609 25.7188L80.207 24.207V15.3477ZM78.0977 24.998L76.9375 25.1738H71.0312V14.3633H76.9375L78.168 14.5566L78.3438 15.5938V24.0137L78.0977 24.998ZM100.158 25.1738H93.1445V20.709H99.0156V18.8633H93.1445V14.3633H99.9121V12.5H91.3164V27.0371H100.158V25.1738ZM97.3633 10.918C98.5469 10.918 99.6191 11.0938 100.58 11.4453C101.541 11.7969 102.355 12.2773 103.023 12.8867C103.703 13.4961 104.225 14.2109 104.588 15.0312C104.951 15.8398 105.133 16.7012 105.133 17.6152V28.3027C105.133 29.2168 104.951 30.084 104.588 30.9043C104.225 31.7129 103.703 32.4219 103.023 33.0312C102.355 33.6406 101.541 34.1211 100.58 34.4727C99.6191 34.8242 98.5469 35 97.3633 35H91.9492C90.7656 35 89.6934 34.8242 88.7324 34.4727C87.7715 34.1211 86.9512 33.6406 86.2715 33.0312C85.6035 32.4219 85.0879 31.7129 84.7246 30.9043C84.3613 30.084 84.1797 29.2168 84.1797 28.3027V17.6152C84.1797 16.7012 84.3613 15.8398 84.7246 15.0312C85.0879 14.2109 85.6035 13.4961 86.2715 12.8867C86.9512 12.2773 87.7715 11.7969 88.7324 11.4453C89.6934 11.0938 90.7656 10.918 91.9492 10.918H97.3633ZM117.947 12.5H113.711L111.9 12.7109L110.793 13.8359L110.529 15.3125V24.2422L110.793 25.7188L111.936 26.8262L113.711 27.0371H117.947L120.004 26.791L119.564 24.8926L117.912 25.1738H113.816L112.656 24.998L112.41 23.9434V15.4883L112.586 14.5215L113.816 14.3281H117.842L119.652 14.627L120.004 12.7461L117.947 12.5ZM118.176 10.918C119.359 10.918 120.432 11.0938 121.393 11.4453C122.354 11.7969 123.168 12.2773 123.836 12.8867C124.516 13.4961 125.037 14.2109 125.4 15.0312C125.764 15.8398 125.945 16.7012 125.945 17.6152V28.3027C125.945 29.2168 125.764 30.084 125.4 30.9043C125.037 31.7129 124.516 32.4219 123.836 33.0312C123.168 33.6406 122.354 34.1211 121.393 34.4727C120.432 34.8242 119.359 35 118.176 35H112.762C111.578 35 110.506 34.8242 109.545 34.4727C108.584 34.1211 107.764 33.6406 107.084 33.0312C106.416 32.4219 105.9 31.7129 105.537 30.9043C105.174 30.084 104.992 29.2168 104.992 28.3027V17.6152C104.992 16.7012 105.174 15.8398 105.537 15.0312C105.9 14.2109 106.416 13.4961 107.084 12.8867C107.764 12.2773 108.584 11.7969 109.545 11.4453C110.506 11.0938 111.578 10.918 112.762 10.918H118.176ZM142.645 12.5H140.816V18.6523H133.504V12.5H131.641V27.0371H133.504V20.498H140.816V27.0371H142.645V12.5ZM138.988 10.918C140.172 10.918 141.244 11.0938 142.205 11.4453C143.166 11.7969 143.98 12.2773 144.648 12.8867C145.328 13.4961 145.85 14.2109 146.213 15.0312C146.576 15.8398 146.758 16.7012 146.758 17.6152V28.3027C146.758 29.2168 146.576 30.084 146.213 30.9043C145.85 31.7129 145.328 32.4219 144.648 33.0312C143.98 33.6406 143.166 34.1211 142.205 34.4727C141.244 34.8242 140.172 35 138.988 35H133.574C132.391 35 131.318 34.8242 130.357 34.4727C129.396 34.1211 128.576 33.6406 127.896 33.0312C127.229 32.4219 126.713 31.7129 126.35 30.9043C125.986 30.084 125.805 29.2168 125.805 28.3027V17.6152C125.805 16.7012 125.986 15.8398 126.35 15.0312C126.713 14.2109 127.229 13.4961 127.896 12.8867C128.576 12.2773 129.396 11.7969 130.357 11.4453C131.318 11.0938 132.391 10.918 133.574 10.918H138.988ZM159.801 10.918C160.984 10.918 162.057 11.0938 163.018 11.4453C163.979 11.7969 164.793 12.2773 165.461 12.8867C166.141 13.4961 166.662 14.2109 167.025 15.0312C167.389 15.8398 167.57 16.7012 167.57 17.6152V28.3027C167.57 29.2168 167.389 30.084 167.025 30.9043C166.662 31.7129 166.141 32.4219 165.461 33.0312C164.793 33.6406 163.979 34.1211 163.018 34.4727C162.057 34.8242 160.984 35 159.801 35H154.387C153.203 35 152.131 34.8242 151.17 34.4727C150.209 34.1211 149.389 33.6406 148.709 33.0312C148.041 32.4219 147.525 31.7129 147.162 30.9043C146.799 30.084 146.617 29.2168 146.617 28.3027V17.6152C146.617 16.7012 146.799 15.8398 147.162 15.0312C147.525 14.2109 148.041 13.4961 148.709 12.8867C149.389 12.2773 150.209 11.7969 151.17 11.4453C152.131 11.0938 153.203 10.918 154.387 10.918H159.801ZM161.418 27.0371H163.422L162.033 13.9414L160.943 12.8516L158.605 12.5H156.725L154.387 12.8516L153.314 13.9414L151.873 27.0371H153.965L154.246 23.293L154.422 21.6758H160.908L161.084 23.293L161.418 27.0371ZM160.188 14.627C160.27 15.5762 160.363 16.4727 160.469 17.3164C160.574 18.1602 160.674 19.0508 160.768 19.9883H154.58L155.107 14.627C155.436 14.5918 155.717 14.5508 155.951 14.5039C156.197 14.457 156.484 14.4102 156.812 14.3633H158.535L160.188 14.627ZM183.953 12.5H173.793V14.3633H177.941V27.0371H179.822V14.3633H183.953V12.5ZM180.613 10.918C181.797 10.918 182.869 11.0938 183.83 11.4453C184.791 11.7969 185.605 12.2773 186.273 12.8867C186.953 13.4961 187.475 14.2109 187.838 15.0312C188.201 15.8398 188.383 16.7012 188.383 17.6152V28.3027C188.383 29.2168 188.201 30.084 187.838 30.9043C187.475 31.7129 186.953 32.4219 186.273 33.0312C185.605 33.6406 184.791 34.1211 183.83 34.4727C182.869 34.8242 181.797 35 180.613 35H175.199C174.016 35 172.943 34.8242 171.982 34.4727C171.021 34.1211 170.201 33.6406 169.521 33.0312C168.854 32.4219 168.338 31.7129 167.975 30.9043C167.611 30.084 167.43 29.2168 167.43 28.3027V17.6152C167.43 16.7012 167.611 15.8398 167.975 15.0312C168.338 14.2109 168.854 13.4961 169.521 12.8867C170.201 12.2773 171.021 11.7969 171.982 11.4453C172.943 11.0938 174.016 10.918 175.199 10.918H180.613Z" fill="#4D6FAF"/>
<path fill-rule="evenodd" clip-rule="evenodd" d="M219.873 23.9777C219.5 23.7918 217.665 22.8933 217.322 22.7692C216.98 22.6453 216.732 22.5834 216.483 22.9551C216.234 23.3269 215.519 24.1636 215.301 24.4116C215.083 24.6594 214.865 24.6905 214.492 24.5045C214.119 24.3186 212.916 23.9264 211.491 22.6609C210.381 21.6759 209.632 20.4596 209.415 20.0877C209.197 19.7159 209.391 19.5149 209.578 19.3297C209.746 19.1632 209.951 18.8958 210.138 18.6788C210.325 18.462 210.387 18.307 210.511 18.0592C210.636 17.8112 210.573 17.5944 210.48 17.4085C210.387 17.2226 209.64 15.3942 209.329 14.6504C209.026 13.9262 208.719 14.0243 208.49 14.0128C208.272 14.0021 208.023 13.9998 207.774 13.9998C207.526 13.9998 207.121 14.0927 206.779 14.4645C206.437 14.8364 205.473 15.7351 205.473 17.5632C205.473 19.3917 206.81 21.1578 206.997 21.4057C207.183 21.6537 209.628 25.4055 213.373 27.0144C214.263 27.3972 214.958 27.6257 215.5 27.7969C216.394 28.0796 217.208 28.0397 217.851 27.9441C218.568 27.8375 220.059 27.0456 220.37 26.178C220.681 25.3101 220.681 24.5665 220.588 24.4116C220.495 24.2566 220.246 24.1636 219.873 23.9777ZM213.063 33.2316H213.058C210.83 33.2308 208.645 32.6351 206.739 31.5094L206.285 31.2415L201.586 32.4683L202.841 27.9088L202.545 27.4413C201.303 25.474 200.646 23.2004 200.647 20.8657C200.65 14.0532 206.219 8.51075 213.068 8.51075C216.384 8.51193 219.501 9.79882 221.845 12.1344C224.189 14.4698 225.479 17.5741 225.478 20.8756C225.475 27.6887 219.906 33.2316 213.063 33.2316ZM223.629 10.3597C220.809 7.54975 217.059 6.0016 213.063 6C204.829 6 198.128 12.6684 198.125 20.8647C198.124 23.4848 198.812 26.0422 200.119 28.2967L198 36L205.918 33.9328C208.1 35.1171 210.557 35.7414 213.057 35.7422H213.063C221.295 35.7422 227.997 29.0731 228 20.8766C228.002 16.9045 226.449 13.1695 223.629 10.3597Z" fill="#4D6FAF"/>
</svg>
