<svg width="107" height="19" viewBox="0 0 107 19" fill="none" xmlns="http://www.w3.org/2000/svg">
<path d="M2 16H5V10H11V16H14V7L8 2.5L2 7V16ZM0 18V6L8 0L16 6V18H9V12H7V18H0Z" fill="#4D6FAF"/>
<path d="M29 15H25.4091V3.36364H29.1591C30.2879 3.36364 31.2538 3.59659 32.0568 4.0625C32.8598 4.52462 33.4754 5.18939 33.9034 6.05682C34.3314 6.92045 34.5455 7.95455 34.5455 9.15909C34.5455 10.3712 34.3295 11.4148 33.8977 12.2898C33.4659 13.161 32.8371 13.8314 32.0114 14.3011C31.1856 14.767 30.1818 15 29 15ZM26.8182 13.75H28.9091C29.8712 13.75 30.6686 13.5644 31.3011 13.1932C31.9337 12.822 32.4053 12.2936 32.7159 11.608C33.0265 10.9223 33.1818 10.1061 33.1818 9.15909C33.1818 8.2197 33.0284 7.41098 32.7216 6.73295C32.4148 6.05114 31.9564 5.52841 31.3466 5.16477C30.7367 4.79735 29.9773 4.61364 29.0682 4.61364H26.8182V13.75ZM39.2955 15.2045C38.7424 15.2045 38.2405 15.1004 37.7898 14.892C37.339 14.6799 36.9811 14.375 36.7159 13.9773C36.4508 13.5758 36.3182 13.0909 36.3182 12.5227C36.3182 12.0227 36.4167 11.6174 36.6136 11.3068C36.8106 10.9924 37.0739 10.7462 37.4034 10.5682C37.733 10.3902 38.0966 10.2576 38.4943 10.1705C38.8958 10.0795 39.2992 10.0076 39.7045 9.95455C40.2348 9.88636 40.6648 9.83523 40.9943 9.80114C41.3277 9.76326 41.5701 9.70076 41.7216 9.61364C41.8769 9.52652 41.9545 9.375 41.9545 9.15909V9.11364C41.9545 8.55303 41.8011 8.11742 41.4943 7.80682C41.1913 7.49621 40.7311 7.34091 40.1136 7.34091C39.4735 7.34091 38.9716 7.48106 38.608 7.76136C38.2443 8.04167 37.9886 8.34091 37.8409 8.65909L36.5682 8.20455C36.7955 7.67424 37.0985 7.26136 37.4773 6.96591C37.8598 6.66667 38.2765 6.45833 38.7273 6.34091C39.1818 6.2197 39.6288 6.15909 40.0682 6.15909C40.3485 6.15909 40.6705 6.19318 41.0341 6.26136C41.4015 6.32576 41.7557 6.46023 42.0966 6.66477C42.4413 6.86932 42.7273 7.17803 42.9545 7.59091C43.1818 8.00379 43.2955 8.55682 43.2955 9.25V15H41.9545V13.8182H41.8864C41.7955 14.0076 41.6439 14.2102 41.4318 14.4261C41.2197 14.642 40.9375 14.8258 40.5852 14.9773C40.233 15.1288 39.803 15.2045 39.2955 15.2045ZM39.5 14C40.0303 14 40.4773 13.8958 40.8409 13.6875C41.2083 13.4792 41.4848 13.2102 41.6705 12.8807C41.8598 12.5511 41.9545 12.2045 41.9545 11.8409V10.6136C41.8977 10.6818 41.7727 10.7443 41.5795 10.8011C41.3902 10.8542 41.1705 10.9015 40.9205 10.9432C40.6742 10.9811 40.4337 11.0152 40.1989 11.0455C39.9678 11.072 39.7803 11.0947 39.6364 11.1136C39.2879 11.1591 38.9621 11.233 38.6591 11.3352C38.3598 11.4337 38.1174 11.5833 37.9318 11.7841C37.75 11.9811 37.6591 12.25 37.6591 12.5909C37.6591 13.0568 37.8314 13.4091 38.1761 13.6477C38.5246 13.8826 38.9659 14 39.5 14ZM51.9247 8.22727L50.7202 8.56818C50.6444 8.36742 50.5327 8.17235 50.3849 7.98295C50.241 7.78977 50.044 7.63068 49.794 7.50568C49.544 7.38068 49.224 7.31818 48.8338 7.31818C48.2997 7.31818 47.8546 7.44129 47.4986 7.6875C47.1463 7.92992 46.9702 8.23864 46.9702 8.61364C46.9702 8.94697 47.0914 9.21023 47.3338 9.40341C47.5762 9.59659 47.955 9.75758 48.4702 9.88636L49.7656 10.2045C50.5459 10.3939 51.1274 10.6837 51.5099 11.0739C51.8925 11.4602 52.0838 11.9583 52.0838 12.5682C52.0838 13.0682 51.9399 13.5152 51.652 13.9091C51.3679 14.303 50.9702 14.6136 50.4588 14.8409C49.9474 15.0682 49.3527 15.1818 48.6747 15.1818C47.7846 15.1818 47.0478 14.9886 46.4645 14.6023C45.8812 14.2159 45.5118 13.6515 45.3565 12.9091L46.6293 12.5909C46.7505 13.0606 46.9796 13.4129 47.3168 13.6477C47.6577 13.8826 48.1027 14 48.652 14C49.277 14 49.7732 13.8674 50.1406 13.6023C50.5118 13.3333 50.6974 13.0114 50.6974 12.6364C50.6974 12.3333 50.5914 12.0795 50.3793 11.875C50.1671 11.6667 49.8414 11.5114 49.402 11.4091L47.9474 11.0682C47.1482 10.8788 46.5611 10.5852 46.1861 10.1875C45.8149 9.78598 45.6293 9.28409 45.6293 8.68182C45.6293 8.18939 45.7675 7.75379 46.044 7.375C46.3243 6.99621 46.705 6.69886 47.1861 6.48295C47.6709 6.26705 48.2202 6.15909 48.8338 6.15909C49.6974 6.15909 50.3755 6.34848 50.8679 6.72727C51.3641 7.10606 51.7164 7.60606 51.9247 8.22727ZM55.4432 9.75V15H54.1023V3.36364H55.4432V7.63636H55.5568C55.7614 7.18561 56.0682 6.82765 56.4773 6.5625C56.8902 6.29356 57.4394 6.15909 58.125 6.15909C58.7197 6.15909 59.2405 6.27841 59.6875 6.51705C60.1345 6.75189 60.4811 7.11364 60.7273 7.60227C60.9773 8.08712 61.1023 8.70455 61.1023 9.45455V15H59.7614V9.54545C59.7614 8.85227 59.5814 8.31629 59.2216 7.9375C58.8655 7.55492 58.3712 7.36364 57.7386 7.36364C57.2992 7.36364 56.9053 7.45644 56.5568 7.64205C56.2121 7.82765 55.9394 8.09848 55.7386 8.45455C55.5417 8.81061 55.4432 9.24242 55.4432 9.75ZM63.7372 15V3.36364H65.0781V7.65909H65.1918C65.2902 7.50758 65.4266 7.31439 65.6009 7.07955C65.7789 6.84091 66.0327 6.62879 66.3622 6.44318C66.6955 6.25379 67.1463 6.15909 67.7145 6.15909C68.4493 6.15909 69.0971 6.3428 69.6577 6.71023C70.2183 7.07765 70.6558 7.59848 70.9702 8.27273C71.2846 8.94697 71.4418 9.74242 71.4418 10.6591C71.4418 11.5833 71.2846 12.3845 70.9702 13.0625C70.6558 13.7367 70.2202 14.2595 69.6634 14.6307C69.1065 14.9981 68.4645 15.1818 67.7372 15.1818C67.1766 15.1818 66.7277 15.089 66.3906 14.9034C66.0535 14.714 65.794 14.5 65.6122 14.2614C65.4304 14.0189 65.2902 13.8182 65.1918 13.6591H65.0327V15H63.7372ZM65.0554 10.6364C65.0554 11.2955 65.152 11.8769 65.3452 12.3807C65.5384 12.8807 65.8205 13.2727 66.1918 13.5568C66.563 13.8371 67.0175 13.9773 67.5554 13.9773C68.116 13.9773 68.5838 13.8295 68.9588 13.5341C69.3376 13.2348 69.6217 12.8333 69.8111 12.3295C70.0043 11.822 70.1009 11.2576 70.1009 10.6364C70.1009 10.0227 70.0062 9.4697 69.8168 8.97727C69.6312 8.48106 69.349 8.08902 68.9702 7.80114C68.5952 7.50947 68.1236 7.36364 67.5554 7.36364C67.0099 7.36364 66.5516 7.50189 66.1804 7.77841C65.8092 8.05114 65.5289 8.43371 65.3395 8.92614C65.1501 9.41477 65.0554 9.98485 65.0554 10.6364ZM77.0384 15.1818C76.2505 15.1818 75.5592 14.9943 74.9645 14.6193C74.3736 14.2443 73.9115 13.7197 73.5781 13.0455C73.2486 12.3712 73.0838 11.5833 73.0838 10.6818C73.0838 9.77273 73.2486 8.97917 73.5781 8.30114C73.9115 7.62311 74.3736 7.09659 74.9645 6.72159C75.5592 6.34659 76.2505 6.15909 77.0384 6.15909C77.8262 6.15909 78.5156 6.34659 79.1065 6.72159C79.7012 7.09659 80.1634 7.62311 80.4929 8.30114C80.8262 8.97917 80.9929 9.77273 80.9929 10.6818C80.9929 11.5833 80.8262 12.3712 80.4929 13.0455C80.1634 13.7197 79.7012 14.2443 79.1065 14.6193C78.5156 14.9943 77.8262 15.1818 77.0384 15.1818ZM77.0384 13.9773C77.6368 13.9773 78.1293 13.8239 78.5156 13.517C78.902 13.2102 79.188 12.8068 79.3736 12.3068C79.5592 11.8068 79.652 11.2652 79.652 10.6818C79.652 10.0985 79.5592 9.55492 79.3736 9.05114C79.188 8.54735 78.902 8.14015 78.5156 7.82955C78.1293 7.51894 77.6368 7.36364 77.0384 7.36364C76.4399 7.36364 75.9474 7.51894 75.5611 7.82955C75.1747 8.14015 74.8887 8.54735 74.7031 9.05114C74.5175 9.55492 74.4247 10.0985 74.4247 10.6818C74.4247 11.2652 74.5175 11.8068 74.7031 12.3068C74.8887 12.8068 75.1747 13.2102 75.5611 13.517C75.9474 13.8239 76.4399 13.9773 77.0384 13.9773ZM85.608 15.2045C85.0549 15.2045 84.553 15.1004 84.1023 14.892C83.6515 14.6799 83.2936 14.375 83.0284 13.9773C82.7633 13.5758 82.6307 13.0909 82.6307 12.5227C82.6307 12.0227 82.7292 11.6174 82.9261 11.3068C83.1231 10.9924 83.3864 10.7462 83.7159 10.5682C84.0455 10.3902 84.4091 10.2576 84.8068 10.1705C85.2083 10.0795 85.6117 10.0076 86.017 9.95455C86.5473 9.88636 86.9773 9.83523 87.3068 9.80114C87.6402 9.76326 87.8826 9.70076 88.0341 9.61364C88.1894 9.52652 88.267 9.375 88.267 9.15909V9.11364C88.267 8.55303 88.1136 8.11742 87.8068 7.80682C87.5038 7.49621 87.0436 7.34091 86.4261 7.34091C85.786 7.34091 85.2841 7.48106 84.9205 7.76136C84.5568 8.04167 84.3011 8.34091 84.1534 8.65909L82.8807 8.20455C83.108 7.67424 83.411 7.26136 83.7898 6.96591C84.1723 6.66667 84.589 6.45833 85.0398 6.34091C85.4943 6.2197 85.9413 6.15909 86.3807 6.15909C86.661 6.15909 86.983 6.19318 87.3466 6.26136C87.714 6.32576 88.0682 6.46023 88.4091 6.66477C88.7538 6.86932 89.0398 7.17803 89.267 7.59091C89.4943 8.00379 89.608 8.55682 89.608 9.25V15H88.267V13.8182H88.1989C88.108 14.0076 87.9564 14.2102 87.7443 14.4261C87.5322 14.642 87.25 14.8258 86.8977 14.9773C86.5455 15.1288 86.1155 15.2045 85.608 15.2045ZM85.8125 14C86.3428 14 86.7898 13.8958 87.1534 13.6875C87.5208 13.4792 87.7973 13.2102 87.983 12.8807C88.1723 12.5511 88.267 12.2045 88.267 11.8409V10.6136C88.2102 10.6818 88.0852 10.7443 87.892 10.8011C87.7027 10.8542 87.483 10.9015 87.233 10.9432C86.9867 10.9811 86.7462 11.0152 86.5114 11.0455C86.2803 11.072 86.0928 11.0947 85.9489 11.1136C85.6004 11.1591 85.2746 11.233 84.9716 11.3352C84.6723 11.4337 84.4299 11.5833 84.2443 11.7841C84.0625 11.9811 83.9716 12.25 83.9716 12.5909C83.9716 13.0568 84.1439 13.4091 84.4886 13.6477C84.8371 13.8826 85.2784 14 85.8125 14ZM92.0554 15V6.27273H93.3509V7.59091H93.4418C93.6009 7.15909 93.8887 6.80871 94.3054 6.53977C94.7221 6.27083 95.1918 6.13636 95.7145 6.13636C95.813 6.13636 95.9361 6.13826 96.0838 6.14205C96.2315 6.14583 96.3433 6.15152 96.419 6.15909V7.52273C96.3736 7.51136 96.2694 7.49432 96.1065 7.47159C95.9474 7.44508 95.7789 7.43182 95.6009 7.43182C95.1766 7.43182 94.7978 7.52083 94.4645 7.69886C94.1349 7.87311 93.8736 8.11553 93.6804 8.42614C93.491 8.73295 93.3963 9.08333 93.3963 9.47727V15H92.0554ZM101.038 15.1818C100.311 15.1818 99.669 14.9981 99.1122 14.6307C98.5554 14.2595 98.1198 13.7367 97.8054 13.0625C97.491 12.3845 97.3338 11.5833 97.3338 10.6591C97.3338 9.74242 97.491 8.94697 97.8054 8.27273C98.1198 7.59848 98.5573 7.07765 99.1179 6.71023C99.6785 6.3428 100.326 6.15909 101.061 6.15909C101.629 6.15909 102.078 6.25379 102.408 6.44318C102.741 6.62879 102.995 6.84091 103.169 7.07955C103.347 7.31439 103.485 7.50758 103.584 7.65909H103.697V3.36364H105.038V15H103.743V13.6591H103.584C103.485 13.8182 103.345 14.0189 103.163 14.2614C102.982 14.5 102.722 14.714 102.385 14.9034C102.048 15.089 101.599 15.1818 101.038 15.1818ZM101.22 13.9773C101.758 13.9773 102.213 13.8371 102.584 13.5568C102.955 13.2727 103.237 12.8807 103.43 12.3807C103.624 11.8769 103.72 11.2955 103.72 10.6364C103.72 9.98485 103.625 9.41477 103.436 8.92614C103.247 8.43371 102.966 8.05114 102.595 7.77841C102.224 7.50189 101.766 7.36364 101.22 7.36364C100.652 7.36364 100.179 7.50947 99.7997 7.80114C99.4247 8.08902 99.1425 8.48106 98.9531 8.97727C98.7675 9.4697 98.6747 10.0227 98.6747 10.6364C98.6747 11.2576 98.7694 11.822 98.9588 12.3295C99.152 12.8333 99.4361 13.2348 99.8111 13.5341C100.19 13.8295 100.66 13.9773 101.22 13.9773Z" fill="#616161"/>
</svg>
