<svg width="272" height="41" viewBox="0 0 272 41" fill="none" xmlns="http://www.w3.org/2000/svg">
<path d="M60.8848 12.5H56.6484L54.8379 12.7109L53.7305 13.8359L53.4668 15.3125V24.2422L53.7305 25.7188L54.873 26.8262L56.6484 27.0371H60.8848L62.9414 26.791L62.502 24.8926L60.8496 25.1738H56.7539L55.5938 24.998L55.3477 23.9434V15.4883L55.5234 14.5215L56.7539 14.3281H60.7793L62.5898 14.627L62.9414 12.7461L60.8848 12.5ZM61.1133 10.918C62.2969 10.918 63.3691 11.0938 64.3301 11.4453C65.291 11.7969 66.1055 12.2773 66.7734 12.8867C67.4531 13.4961 67.9746 14.2109 68.3379 15.0312C68.7012 15.8398 68.8828 16.7012 68.8828 17.6152V28.3027C68.8828 29.2168 68.7012 30.084 68.3379 30.9043C67.9746 31.7129 67.4531 32.4219 66.7734 33.0312C66.1055 33.6406 65.291 34.1211 64.3301 34.4727C63.3691 34.8242 62.2969 35 61.1133 35H55.6992C54.5156 35 53.4434 34.8242 52.4824 34.4727C51.5215 34.1211 50.7012 33.6406 50.0215 33.0312C49.3535 32.4219 48.8379 31.7129 48.4746 30.9043C48.1113 30.084 47.9297 29.2168 47.9297 28.3027V17.6152C47.9297 16.7012 48.1113 15.8398 48.4746 15.0312C48.8379 14.2109 49.3535 13.4961 50.0215 12.8867C50.7012 12.2773 51.5215 11.7969 52.4824 11.4453C53.4434 11.0938 54.5156 10.918 55.6992 10.918H61.1133ZM81.9258 10.918C83.1094 10.918 84.1816 11.0938 85.1426 11.4453C86.1035 11.7969 86.918 12.2773 87.5859 12.8867C88.2656 13.4961 88.7871 14.2109 89.1504 15.0312C89.5137 15.8398 89.6953 16.7012 89.6953 17.6152V28.3027C89.6953 29.2168 89.5137 30.084 89.1504 30.9043C88.7871 31.7129 88.2656 32.4219 87.5859 33.0312C86.918 33.6406 86.1035 34.1211 85.1426 34.4727C84.1816 34.8242 83.1094 35 81.9258 35H76.5117C75.3281 35 74.2559 34.8242 73.2949 34.4727C72.334 34.1211 71.5137 33.6406 70.834 33.0312C70.166 32.4219 69.6504 31.7129 69.2871 30.9043C68.9238 30.084 68.7422 29.2168 68.7422 28.3027V17.6152C68.7422 16.7012 68.9238 15.8398 69.2871 15.0312C69.6504 14.2109 70.166 13.4961 70.834 12.8867C71.5137 12.2773 72.334 11.7969 73.2949 11.4453C74.2559 11.0938 75.3281 10.918 76.5117 10.918H81.9258ZM82.8223 22.6953V27.0371H84.6855V22.502L84.0703 20.8848L82.0664 20.1641L84 19.2324L84.5449 17.6504V15.6992L84.334 14.2227L83.1738 12.7461L81.416 12.5H74.8594V27.0371H76.7402V21.1836H81.3105L82.5586 21.7461L82.8223 22.6953ZM81.3105 14.3633L82.5586 14.9082L82.6816 15.9277V17.791L82.418 18.7578L81.3105 19.3027H76.7402V14.3633H81.3105ZM102.738 10.918C103.922 10.918 104.994 11.0938 105.955 11.4453C106.916 11.7969 107.73 12.2773 108.398 12.8867C109.078 13.4961 109.6 14.2109 109.963 15.0312C110.326 15.8398 110.508 16.7012 110.508 17.6152V28.3027C110.508 29.2168 110.326 30.084 109.963 30.9043C109.6 31.7129 109.078 32.4219 108.398 33.0312C107.73 33.6406 106.916 34.1211 105.955 34.4727C104.994 34.8242 103.922 35 102.738 35H97.3242C96.1406 35 95.0684 34.8242 94.1074 34.4727C93.1465 34.1211 92.3262 33.6406 91.6465 33.0312C90.9785 32.4219 90.4629 31.7129 90.0996 30.9043C89.7363 30.084 89.5547 29.2168 89.5547 28.3027V17.6152C89.5547 16.7012 89.7363 15.8398 90.0996 15.0312C90.4629 14.2109 90.9785 13.4961 91.6465 12.8867C92.3262 12.2773 93.1465 11.7969 94.1074 11.4453C95.0684 11.0938 96.1406 10.918 97.3242 10.918H102.738ZM106.254 12.5H104.391V24.0137C104.367 24.166 104.326 24.3301 104.268 24.5059C104.221 24.6816 104.174 24.8457 104.127 24.998L102.984 25.1738H98.4844L97.3242 24.998L97.0781 23.9434V12.5H95.25V24.207L95.4609 25.7188L96.6035 26.8262L98.3789 27.0371H103.09L104.883 26.8262L106.008 25.7188L106.254 24.207V12.5ZM123.551 10.918C124.734 10.918 125.807 11.0938 126.768 11.4453C127.729 11.7969 128.543 12.2773 129.211 12.8867C129.891 13.4961 130.412 14.2109 130.775 15.0312C131.139 15.8398 131.32 16.7012 131.32 17.6152V28.3027C131.32 29.2168 131.139 30.084 130.775 30.9043C130.412 31.7129 129.891 32.4219 129.211 33.0312C128.543 33.6406 127.729 34.1211 126.768 34.4727C125.807 34.8242 124.734 35 123.551 35H118.137C116.953 35 115.881 34.8242 114.92 34.4727C113.959 34.1211 113.139 33.6406 112.459 33.0312C111.791 32.4219 111.275 31.7129 110.912 30.9043C110.549 30.084 110.367 29.2168 110.367 28.3027V17.6152C110.367 16.7012 110.549 15.8398 110.912 15.0312C111.275 14.2109 111.791 13.4961 112.459 12.8867C113.139 12.2773 113.959 11.7969 114.92 11.4453C115.881 11.0938 116.953 10.918 118.137 10.918H123.551ZM127.207 15.3477L126.961 13.8711L125.854 12.7461L124.043 12.5H116.203V27.0371H124.043L125.854 26.8262L126.961 25.7188L127.207 24.207V15.3477ZM125.098 24.998L123.938 25.1738H118.031V14.3633H123.938L125.168 14.5566L125.344 15.5938V24.0137L125.098 24.998ZM147.158 25.1738H140.145V20.709H146.016V18.8633H140.145V14.3633H146.912V12.5H138.316V27.0371H147.158V25.1738ZM144.363 10.918C145.547 10.918 146.619 11.0938 147.58 11.4453C148.541 11.7969 149.355 12.2773 150.023 12.8867C150.703 13.4961 151.225 14.2109 151.588 15.0312C151.951 15.8398 152.133 16.7012 152.133 17.6152V28.3027C152.133 29.2168 151.951 30.084 151.588 30.9043C151.225 31.7129 150.703 32.4219 150.023 33.0312C149.355 33.6406 148.541 34.1211 147.58 34.4727C146.619 34.8242 145.547 35 144.363 35H138.949C137.766 35 136.693 34.8242 135.732 34.4727C134.771 34.1211 133.951 33.6406 133.271 33.0312C132.604 32.4219 132.088 31.7129 131.725 30.9043C131.361 30.084 131.18 29.2168 131.18 28.3027V17.6152C131.18 16.7012 131.361 15.8398 131.725 15.0312C132.088 14.2109 132.604 13.4961 133.271 12.8867C133.951 12.2773 134.771 11.7969 135.732 11.4453C136.693 11.0938 137.766 10.918 138.949 10.918H144.363ZM164.947 12.5H160.711L158.9 12.7109L157.793 13.8359L157.529 15.3125V24.2422L157.793 25.7188L158.936 26.8262L160.711 27.0371H164.947L167.004 26.791L166.564 24.8926L164.912 25.1738H160.816L159.656 24.998L159.41 23.9434V15.4883L159.586 14.5215L160.816 14.3281H164.842L166.652 14.627L167.004 12.7461L164.947 12.5ZM165.176 10.918C166.359 10.918 167.432 11.0938 168.393 11.4453C169.354 11.7969 170.168 12.2773 170.836 12.8867C171.516 13.4961 172.037 14.2109 172.4 15.0312C172.764 15.8398 172.945 16.7012 172.945 17.6152V28.3027C172.945 29.2168 172.764 30.084 172.4 30.9043C172.037 31.7129 171.516 32.4219 170.836 33.0312C170.168 33.6406 169.354 34.1211 168.393 34.4727C167.432 34.8242 166.359 35 165.176 35H159.762C158.578 35 157.506 34.8242 156.545 34.4727C155.584 34.1211 154.764 33.6406 154.084 33.0312C153.416 32.4219 152.9 31.7129 152.537 30.9043C152.174 30.084 151.992 29.2168 151.992 28.3027V17.6152C151.992 16.7012 152.174 15.8398 152.537 15.0312C152.9 14.2109 153.416 13.4961 154.084 12.8867C154.764 12.2773 155.584 11.7969 156.545 11.4453C157.506 11.0938 158.578 10.918 159.762 10.918H165.176ZM189.645 12.5H187.816V18.6523H180.504V12.5H178.641V27.0371H180.504V20.498H187.816V27.0371H189.645V12.5ZM185.988 10.918C187.172 10.918 188.244 11.0938 189.205 11.4453C190.166 11.7969 190.98 12.2773 191.648 12.8867C192.328 13.4961 192.85 14.2109 193.213 15.0312C193.576 15.8398 193.758 16.7012 193.758 17.6152V28.3027C193.758 29.2168 193.576 30.084 193.213 30.9043C192.85 31.7129 192.328 32.4219 191.648 33.0312C190.98 33.6406 190.166 34.1211 189.205 34.4727C188.244 34.8242 187.172 35 185.988 35H180.574C179.391 35 178.318 34.8242 177.357 34.4727C176.396 34.1211 175.576 33.6406 174.896 33.0312C174.229 32.4219 173.713 31.7129 173.35 30.9043C172.986 30.084 172.805 29.2168 172.805 28.3027V17.6152C172.805 16.7012 172.986 15.8398 173.35 15.0312C173.713 14.2109 174.229 13.4961 174.896 12.8867C175.576 12.2773 176.396 11.7969 177.357 11.4453C178.318 11.0938 179.391 10.918 180.574 10.918H185.988ZM206.801 10.918C207.984 10.918 209.057 11.0938 210.018 11.4453C210.979 11.7969 211.793 12.2773 212.461 12.8867C213.141 13.4961 213.662 14.2109 214.025 15.0312C214.389 15.8398 214.57 16.7012 214.57 17.6152V28.3027C214.57 29.2168 214.389 30.084 214.025 30.9043C213.662 31.7129 213.141 32.4219 212.461 33.0312C211.793 33.6406 210.979 34.1211 210.018 34.4727C209.057 34.8242 207.984 35 206.801 35H201.387C200.203 35 199.131 34.8242 198.17 34.4727C197.209 34.1211 196.389 33.6406 195.709 33.0312C195.041 32.4219 194.525 31.7129 194.162 30.9043C193.799 30.084 193.617 29.2168 193.617 28.3027V17.6152C193.617 16.7012 193.799 15.8398 194.162 15.0312C194.525 14.2109 195.041 13.4961 195.709 12.8867C196.389 12.2773 197.209 11.7969 198.17 11.4453C199.131 11.0938 200.203 10.918 201.387 10.918H206.801ZM208.418 27.0371H210.422L209.033 13.9414L207.943 12.8516L205.605 12.5H203.725L201.387 12.8516L200.314 13.9414L198.873 27.0371H200.965L201.246 23.293L201.422 21.6758H207.908L208.084 23.293L208.418 27.0371ZM207.188 14.627C207.27 15.5762 207.363 16.4727 207.469 17.3164C207.574 18.1602 207.674 19.0508 207.768 19.9883H201.58L202.107 14.627C202.436 14.5918 202.717 14.5508 202.951 14.5039C203.197 14.457 203.484 14.4102 203.812 14.3633H205.535L207.188 14.627ZM230.953 12.5H220.793V14.3633H224.941V27.0371H226.822V14.3633H230.953V12.5ZM227.613 10.918C228.797 10.918 229.869 11.0938 230.83 11.4453C231.791 11.7969 232.605 12.2773 233.273 12.8867C233.953 13.4961 234.475 14.2109 234.838 15.0312C235.201 15.8398 235.383 16.7012 235.383 17.6152V28.3027C235.383 29.2168 235.201 30.084 234.838 30.9043C234.475 31.7129 233.953 32.4219 233.273 33.0312C232.605 33.6406 231.791 34.1211 230.83 34.4727C229.869 34.8242 228.797 35 227.613 35H222.199C221.016 35 219.943 34.8242 218.982 34.4727C218.021 34.1211 217.201 33.6406 216.521 33.0312C215.854 32.4219 215.338 31.7129 214.975 30.9043C214.611 30.084 214.43 29.2168 214.43 28.3027V17.6152C214.43 16.7012 214.611 15.8398 214.975 15.0312C215.338 14.2109 215.854 13.4961 216.521 12.8867C217.201 12.2773 218.021 11.7969 218.982 11.4453C219.943 11.0938 221.016 10.918 222.199 10.918H227.613Z" fill="#4D6FAF"/>
<path fill-rule="evenodd" clip-rule="evenodd" d="M264.415 22.7792C264.066 22.6056 262.354 21.7671 262.034 21.6512C261.715 21.5356 261.483 21.4778 261.251 21.8248C261.018 22.1717 260.351 22.9527 260.147 23.1841C259.944 23.4155 259.741 23.4445 259.393 23.2709C259.044 23.0974 257.922 22.7313 256.591 21.5501C255.556 20.6309 254.857 19.4956 254.654 19.1486C254.45 18.8015 254.632 18.6139 254.806 18.441C254.963 18.2856 255.155 18.0361 255.329 17.8336C255.503 17.6312 255.561 17.4865 255.677 17.2553C255.793 17.0238 255.735 16.8214 255.648 16.648C255.561 16.4744 254.864 14.7679 254.574 14.0737C254.291 13.3978 254.004 13.4893 253.79 13.4786C253.587 13.4686 253.355 13.4664 253.123 13.4664C252.89 13.4664 252.513 13.5532 252.194 13.9002C251.874 14.2473 250.975 15.0861 250.975 16.7924C250.975 18.4989 252.223 20.1473 252.397 20.3787C252.571 20.6102 254.853 24.1118 258.348 25.6135C259.179 25.9707 259.828 26.184 260.334 26.3438C261.168 26.6077 261.927 26.5704 262.528 26.4811C263.197 26.3817 264.589 25.6425 264.879 24.8328C265.169 24.0228 265.169 23.3287 265.082 23.1841C264.995 23.0395 264.763 22.9527 264.415 22.7792ZM258.059 31.4162H258.054C255.975 31.4154 253.935 30.8594 252.156 29.8087L251.733 29.5588L247.347 30.7037L248.518 26.4482L248.242 26.0118C247.083 24.1758 246.47 22.0537 246.471 19.8746C246.473 13.5163 251.672 8.34337 258.063 8.34337C261.158 8.34446 264.068 9.54556 266.255 11.7254C268.443 13.9051 269.647 16.8025 269.646 19.8839C269.643 26.2428 264.445 31.4162 258.059 31.4162ZM267.92 10.069C265.288 7.44644 261.788 6.0015 258.058 6C250.374 6 244.12 12.2238 244.117 19.8737C244.116 22.3192 244.758 24.706 245.978 26.8102L244 34L251.391 32.0706C253.427 33.176 255.72 33.7586 258.053 33.7594H258.059C265.742 33.7594 271.997 27.5349 272 19.8849C272.001 16.1775 270.553 12.6916 267.92 10.069Z" fill="#4D6FAF"/>
<path d="M0 31V29H18V31H0ZM0 23V21H18V23H0ZM0 15V13H18V15H0Z" fill="#4D6FAF"/>
</svg>
