<svg width="379" height="173" viewBox="0 0 379 173" fill="none" xmlns="http://www.w3.org/2000/svg">
<rect width="379" height="173" rx="7" fill="white"/>
<rect x="0.5" y="0.5" width="378" height="172" rx="6.5" stroke="#4D6FAF" stroke-opacity="0.45"/>
<path d="M54.1797 91H48.5312L46.1172 91.2812L44.6406 92.7812L44.2891 94.75V106.656L44.6406 108.625L46.1641 110.102L48.5312 110.383H54.1797L56.9219 110.055L56.3359 107.523L54.1328 107.898H48.6719L47.125 107.664L46.7969 106.258V94.9844L47.0312 93.6953L48.6719 93.4375H54.0391L56.4531 93.8359L56.9219 91.3281L54.1797 91ZM54.4844 88.8906C56.0625 88.8906 57.4922 89.125 58.7734 89.5938C60.0547 90.0625 61.1406 90.7031 62.0312 91.5156C62.9375 92.3281 63.6328 93.2812 64.1172 94.375C64.6016 95.4531 64.8438 96.6016 64.8438 97.8203V112.07C64.8438 113.289 64.6016 114.445 64.1172 115.539C63.6328 116.617 62.9375 117.562 62.0312 118.375C61.1406 119.188 60.0547 119.828 58.7734 120.297C57.4922 120.766 56.0625 121 54.4844 121H47.2656C45.6875 121 44.2578 120.766 42.9766 120.297C41.6953 119.828 40.6016 119.188 39.6953 118.375C38.8047 117.562 38.1172 116.617 37.6328 115.539C37.1484 114.445 36.9062 113.289 36.9062 112.07V97.8203C36.9062 96.6016 37.1484 95.4531 37.6328 94.375C38.1172 93.2812 38.8047 92.3281 39.6953 91.5156C40.6016 90.7031 41.6953 90.0625 42.9766 89.5938C44.2578 89.125 45.6875 88.8906 47.2656 88.8906H54.4844ZM82.2344 88.8906C83.8125 88.8906 85.2422 89.125 86.5234 89.5938C87.8047 90.0625 88.8906 90.7031 89.7812 91.5156C90.6875 92.3281 91.3828 93.2812 91.8672 94.375C92.3516 95.4531 92.5938 96.6016 92.5938 97.8203V112.07C92.5938 113.289 92.3516 114.445 91.8672 115.539C91.3828 116.617 90.6875 117.562 89.7812 118.375C88.8906 119.188 87.8047 119.828 86.5234 120.297C85.2422 120.766 83.8125 121 82.2344 121H75.0156C73.4375 121 72.0078 120.766 70.7266 120.297C69.4453 119.828 68.3516 119.188 67.4453 118.375C66.5547 117.562 65.8672 116.617 65.3828 115.539C64.8984 114.445 64.6562 113.289 64.6562 112.07V97.8203C64.6562 96.6016 64.8984 95.4531 65.3828 94.375C65.8672 93.2812 66.5547 92.3281 67.4453 91.5156C68.3516 90.7031 69.4453 90.0625 70.7266 89.5938C72.0078 89.125 73.4375 88.8906 75.0156 88.8906H82.2344ZM83.4297 104.594V110.383H85.9141V104.336L85.0938 102.18L82.4219 101.219L85 99.9766L85.7266 97.8672V95.2656L85.4453 93.2969L83.8984 91.3281L81.5547 91H72.8125V110.383H75.3203V102.578H81.4141L83.0781 103.328L83.4297 104.594ZM81.4141 93.4844L83.0781 94.2109L83.2422 95.5703V98.0547L82.8906 99.3438L81.4141 100.07H75.3203V93.4844H81.4141ZM109.984 88.8906C111.562 88.8906 112.992 89.125 114.273 89.5938C115.555 90.0625 116.641 90.7031 117.531 91.5156C118.438 92.3281 119.133 93.2812 119.617 94.375C120.102 95.4531 120.344 96.6016 120.344 97.8203V112.07C120.344 113.289 120.102 114.445 119.617 115.539C119.133 116.617 118.438 117.562 117.531 118.375C116.641 119.188 115.555 119.828 114.273 120.297C112.992 120.766 111.562 121 109.984 121H102.766C101.188 121 99.7578 120.766 98.4766 120.297C97.1953 119.828 96.1016 119.188 95.1953 118.375C94.3047 117.562 93.6172 116.617 93.1328 115.539C92.6484 114.445 92.4062 113.289 92.4062 112.07V97.8203C92.4062 96.6016 92.6484 95.4531 93.1328 94.375C93.6172 93.2812 94.3047 92.3281 95.1953 91.5156C96.1016 90.7031 97.1953 90.0625 98.4766 89.5938C99.7578 89.125 101.188 88.8906 102.766 88.8906H109.984ZM114.672 91H112.188V106.352C112.156 106.555 112.102 106.773 112.023 107.008C111.961 107.242 111.898 107.461 111.836 107.664L110.312 107.898H104.312L102.766 107.664L102.438 106.258V91H100V106.609L100.281 108.625L101.805 110.102L104.172 110.383H110.453L112.844 110.102L114.344 108.625L114.672 106.609V91ZM137.734 88.8906C139.312 88.8906 140.742 89.125 142.023 89.5938C143.305 90.0625 144.391 90.7031 145.281 91.5156C146.188 92.3281 146.883 93.2812 147.367 94.375C147.852 95.4531 148.094 96.6016 148.094 97.8203V112.07C148.094 113.289 147.852 114.445 147.367 115.539C146.883 116.617 146.188 117.562 145.281 118.375C144.391 119.188 143.305 119.828 142.023 120.297C140.742 120.766 139.312 121 137.734 121H130.516C128.938 121 127.508 120.766 126.227 120.297C124.945 119.828 123.852 119.188 122.945 118.375C122.055 117.562 121.367 116.617 120.883 115.539C120.398 114.445 120.156 113.289 120.156 112.07V97.8203C120.156 96.6016 120.398 95.4531 120.883 94.375C121.367 93.2812 122.055 92.3281 122.945 91.5156C123.852 90.7031 124.945 90.0625 126.227 89.5938C127.508 89.125 128.938 88.8906 130.516 88.8906H137.734ZM142.609 94.7969L142.281 92.8281L140.805 91.3281L138.391 91H127.938V110.383H138.391L140.805 110.102L142.281 108.625L142.609 106.609V94.7969ZM139.797 107.664L138.25 107.898H130.375V93.4844H138.25L139.891 93.7422L140.125 95.125V106.352L139.797 107.664ZM169.211 107.898H159.859V101.945H167.688V99.4844H159.859V93.4844H168.883V91H157.422V110.383H169.211V107.898ZM165.484 88.8906C167.062 88.8906 168.492 89.125 169.773 89.5938C171.055 90.0625 172.141 90.7031 173.031 91.5156C173.938 92.3281 174.633 93.2812 175.117 94.375C175.602 95.4531 175.844 96.6016 175.844 97.8203V112.07C175.844 113.289 175.602 114.445 175.117 115.539C174.633 116.617 173.938 117.562 173.031 118.375C172.141 119.188 171.055 119.828 169.773 120.297C168.492 120.766 167.062 121 165.484 121H158.266C156.688 121 155.258 120.766 153.977 120.297C152.695 119.828 151.602 119.188 150.695 118.375C149.805 117.562 149.117 116.617 148.633 115.539C148.148 114.445 147.906 113.289 147.906 112.07V97.8203C147.906 96.6016 148.148 95.4531 148.633 94.375C149.117 93.2812 149.805 92.3281 150.695 91.5156C151.602 90.7031 152.695 90.0625 153.977 89.5938C155.258 89.125 156.688 88.8906 158.266 88.8906H165.484ZM192.93 91H187.281L184.867 91.2812L183.391 92.7812L183.039 94.75V106.656L183.391 108.625L184.914 110.102L187.281 110.383H192.93L195.672 110.055L195.086 107.523L192.883 107.898H187.422L185.875 107.664L185.547 106.258V94.9844L185.781 93.6953L187.422 93.4375H192.789L195.203 93.8359L195.672 91.3281L192.93 91ZM193.234 88.8906C194.812 88.8906 196.242 89.125 197.523 89.5938C198.805 90.0625 199.891 90.7031 200.781 91.5156C201.688 92.3281 202.383 93.2812 202.867 94.375C203.352 95.4531 203.594 96.6016 203.594 97.8203V112.07C203.594 113.289 203.352 114.445 202.867 115.539C202.383 116.617 201.688 117.562 200.781 118.375C199.891 119.188 198.805 119.828 197.523 120.297C196.242 120.766 194.812 121 193.234 121H186.016C184.438 121 183.008 120.766 181.727 120.297C180.445 119.828 179.352 119.188 178.445 118.375C177.555 117.562 176.867 116.617 176.383 115.539C175.898 114.445 175.656 113.289 175.656 112.07V97.8203C175.656 96.6016 175.898 95.4531 176.383 94.375C176.867 93.2812 177.555 92.3281 178.445 91.5156C179.352 90.7031 180.445 90.0625 181.727 89.5938C183.008 89.125 184.438 88.8906 186.016 88.8906H193.234ZM225.859 91H223.422V99.2031H213.672V91H211.188V110.383H213.672V101.664H223.422V110.383H225.859V91ZM220.984 88.8906C222.562 88.8906 223.992 89.125 225.273 89.5938C226.555 90.0625 227.641 90.7031 228.531 91.5156C229.438 92.3281 230.133 93.2812 230.617 94.375C231.102 95.4531 231.344 96.6016 231.344 97.8203V112.07C231.344 113.289 231.102 114.445 230.617 115.539C230.133 116.617 229.438 117.562 228.531 118.375C227.641 119.188 226.555 119.828 225.273 120.297C223.992 120.766 222.562 121 220.984 121H213.766C212.188 121 210.758 120.766 209.477 120.297C208.195 119.828 207.102 119.188 206.195 118.375C205.305 117.562 204.617 116.617 204.133 115.539C203.648 114.445 203.406 113.289 203.406 112.07V97.8203C203.406 96.6016 203.648 95.4531 204.133 94.375C204.617 93.2812 205.305 92.3281 206.195 91.5156C207.102 90.7031 208.195 90.0625 209.477 89.5938C210.758 89.125 212.188 88.8906 213.766 88.8906H220.984ZM248.734 88.8906C250.312 88.8906 251.742 89.125 253.023 89.5938C254.305 90.0625 255.391 90.7031 256.281 91.5156C257.188 92.3281 257.883 93.2812 258.367 94.375C258.852 95.4531 259.094 96.6016 259.094 97.8203V112.07C259.094 113.289 258.852 114.445 258.367 115.539C257.883 116.617 257.188 117.562 256.281 118.375C255.391 119.188 254.305 119.828 253.023 120.297C251.742 120.766 250.312 121 248.734 121H241.516C239.938 121 238.508 120.766 237.227 120.297C235.945 119.828 234.852 119.188 233.945 118.375C233.055 117.562 232.367 116.617 231.883 115.539C231.398 114.445 231.156 113.289 231.156 112.07V97.8203C231.156 96.6016 231.398 95.4531 231.883 94.375C232.367 93.2812 233.055 92.3281 233.945 91.5156C234.852 90.7031 235.945 90.0625 237.227 89.5938C238.508 89.125 239.938 88.8906 241.516 88.8906H248.734ZM250.891 110.383H253.562L251.711 92.9219L250.258 91.4688L247.141 91H244.633L241.516 91.4688L240.086 92.9219L238.164 110.383H240.953L241.328 105.391L241.562 103.234H250.211L250.445 105.391L250.891 110.383ZM249.25 93.8359C249.359 95.1016 249.484 96.2969 249.625 97.4219C249.766 98.5469 249.898 99.7344 250.023 100.984H241.773L242.477 93.8359C242.914 93.7891 243.289 93.7344 243.602 93.6719C243.93 93.6094 244.312 93.5469 244.75 93.4844H247.047L249.25 93.8359ZM280.938 91H267.391V93.4844H272.922V110.383H275.43V93.4844H280.938V91ZM276.484 88.8906C278.062 88.8906 279.492 89.125 280.773 89.5938C282.055 90.0625 283.141 90.7031 284.031 91.5156C284.938 92.3281 285.633 93.2812 286.117 94.375C286.602 95.4531 286.844 96.6016 286.844 97.8203V112.07C286.844 113.289 286.602 114.445 286.117 115.539C285.633 116.617 284.938 117.562 284.031 118.375C283.141 119.188 282.055 119.828 280.773 120.297C279.492 120.766 278.062 121 276.484 121H269.266C267.688 121 266.258 120.766 264.977 120.297C263.695 119.828 262.602 119.188 261.695 118.375C260.805 117.562 260.117 116.617 259.633 115.539C259.148 114.445 258.906 113.289 258.906 112.07V97.8203C258.906 96.6016 259.148 95.4531 259.633 94.375C260.117 93.2812 260.805 92.3281 261.695 91.5156C262.602 90.7031 263.695 90.0625 264.977 89.5938C266.258 89.125 267.688 88.8906 269.266 88.8906H276.484Z" fill="#4D6FAF"/>
<path fill-rule="evenodd" clip-rule="evenodd" d="M327.212 70.2349C326.685 69.9705 324.091 68.6927 323.607 68.5161C323.123 68.3399 322.772 68.2518 322.42 68.7806C322.068 69.3093 321.057 70.4993 320.749 70.852C320.442 71.2045 320.134 71.2487 319.606 70.9841C319.078 70.7198 317.378 70.162 315.363 68.3621C313.795 66.9613 312.736 65.2314 312.428 64.7025C312.12 64.1736 312.395 63.8878 312.659 63.6244C312.897 63.3876 313.187 63.0073 313.451 62.6988C313.714 62.3904 313.802 62.1699 313.978 61.8176C314.154 61.4648 314.066 61.1565 313.934 60.8921C313.802 60.6276 312.747 58.0273 312.307 56.9694C311.879 55.9394 311.444 56.079 311.12 56.0626C310.813 56.0473 310.461 56.0441 310.109 56.0441C309.757 56.0441 309.186 56.1763 308.702 56.705C308.218 57.2339 306.855 58.5121 306.855 61.1121C306.855 63.7126 308.746 66.2244 309.01 66.577C309.274 66.9297 312.73 72.2656 318.023 74.5538C319.282 75.0982 320.265 75.4232 321.031 75.6666C322.295 76.0688 323.445 76.012 324.354 75.8759C325.368 75.7244 327.476 74.5981 327.916 73.3642C328.356 72.1299 328.356 71.0722 328.224 70.852C328.092 70.6316 327.74 70.4993 327.212 70.2349ZM317.585 83.396H317.578C314.429 83.3948 311.34 82.5476 308.645 80.9466L308.004 80.5657L301.361 82.3104L303.134 75.8258L302.717 75.1609C300.96 72.363 300.032 69.1294 300.034 65.8089C300.038 56.1201 307.911 48.2375 317.592 48.2375C322.28 48.2391 326.687 50.0694 330.001 53.3911C333.314 56.7125 335.138 61.1276 335.136 65.8231C335.132 75.5127 327.259 83.396 317.585 83.396ZM332.523 50.867C328.536 46.8707 323.234 44.6689 317.585 44.6666C305.946 44.6666 296.473 54.1506 296.468 65.8076C296.467 69.534 297.439 73.171 299.287 76.3775L296.291 87.3333L307.485 84.3933C310.57 86.0776 314.042 86.9654 317.577 86.9666H317.585C329.223 86.9666 338.697 77.4817 338.702 65.8245C338.704 60.1753 336.509 54.8633 332.523 50.867Z" fill="#4D6FAF"/>
<path d="M54.1797 91H48.5312L46.1172 91.2812L44.6406 92.7812L44.2891 94.75V106.656L44.6406 108.625L46.1641 110.102L48.5312 110.383H54.1797L56.9219 110.055L56.3359 107.523L54.1328 107.898H48.6719L47.125 107.664L46.7969 106.258V94.9844L47.0312 93.6953L48.6719 93.4375H54.0391L56.4531 93.8359L56.9219 91.3281L54.1797 91ZM54.4844 88.8906C56.0625 88.8906 57.4922 89.125 58.7734 89.5938C60.0547 90.0625 61.1406 90.7031 62.0312 91.5156C62.9375 92.3281 63.6328 93.2812 64.1172 94.375C64.6016 95.4531 64.8438 96.6016 64.8438 97.8203V112.07C64.8438 113.289 64.6016 114.445 64.1172 115.539C63.6328 116.617 62.9375 117.562 62.0312 118.375C61.1406 119.188 60.0547 119.828 58.7734 120.297C57.4922 120.766 56.0625 121 54.4844 121H47.2656C45.6875 121 44.2578 120.766 42.9766 120.297C41.6953 119.828 40.6016 119.188 39.6953 118.375C38.8047 117.562 38.1172 116.617 37.6328 115.539C37.1484 114.445 36.9062 113.289 36.9062 112.07V97.8203C36.9062 96.6016 37.1484 95.4531 37.6328 94.375C38.1172 93.2812 38.8047 92.3281 39.6953 91.5156C40.6016 90.7031 41.6953 90.0625 42.9766 89.5938C44.2578 89.125 45.6875 88.8906 47.2656 88.8906H54.4844ZM82.2344 88.8906C83.8125 88.8906 85.2422 89.125 86.5234 89.5938C87.8047 90.0625 88.8906 90.7031 89.7812 91.5156C90.6875 92.3281 91.3828 93.2812 91.8672 94.375C92.3516 95.4531 92.5938 96.6016 92.5938 97.8203V112.07C92.5938 113.289 92.3516 114.445 91.8672 115.539C91.3828 116.617 90.6875 117.562 89.7812 118.375C88.8906 119.188 87.8047 119.828 86.5234 120.297C85.2422 120.766 83.8125 121 82.2344 121H75.0156C73.4375 121 72.0078 120.766 70.7266 120.297C69.4453 119.828 68.3516 119.188 67.4453 118.375C66.5547 117.562 65.8672 116.617 65.3828 115.539C64.8984 114.445 64.6562 113.289 64.6562 112.07V97.8203C64.6562 96.6016 64.8984 95.4531 65.3828 94.375C65.8672 93.2812 66.5547 92.3281 67.4453 91.5156C68.3516 90.7031 69.4453 90.0625 70.7266 89.5938C72.0078 89.125 73.4375 88.8906 75.0156 88.8906H82.2344ZM83.4297 104.594V110.383H85.9141V104.336L85.0938 102.18L82.4219 101.219L85 99.9766L85.7266 97.8672V95.2656L85.4453 93.2969L83.8984 91.3281L81.5547 91H72.8125V110.383H75.3203V102.578H81.4141L83.0781 103.328L83.4297 104.594ZM81.4141 93.4844L83.0781 94.2109L83.2422 95.5703V98.0547L82.8906 99.3438L81.4141 100.07H75.3203V93.4844H81.4141ZM109.984 88.8906C111.562 88.8906 112.992 89.125 114.273 89.5938C115.555 90.0625 116.641 90.7031 117.531 91.5156C118.438 92.3281 119.133 93.2812 119.617 94.375C120.102 95.4531 120.344 96.6016 120.344 97.8203V112.07C120.344 113.289 120.102 114.445 119.617 115.539C119.133 116.617 118.438 117.562 117.531 118.375C116.641 119.188 115.555 119.828 114.273 120.297C112.992 120.766 111.562 121 109.984 121H102.766C101.188 121 99.7578 120.766 98.4766 120.297C97.1953 119.828 96.1016 119.188 95.1953 118.375C94.3047 117.562 93.6172 116.617 93.1328 115.539C92.6484 114.445 92.4062 113.289 92.4062 112.07V97.8203C92.4062 96.6016 92.6484 95.4531 93.1328 94.375C93.6172 93.2812 94.3047 92.3281 95.1953 91.5156C96.1016 90.7031 97.1953 90.0625 98.4766 89.5938C99.7578 89.125 101.188 88.8906 102.766 88.8906H109.984ZM114.672 91H112.188V106.352C112.156 106.555 112.102 106.773 112.023 107.008C111.961 107.242 111.898 107.461 111.836 107.664L110.312 107.898H104.312L102.766 107.664L102.438 106.258V91H100V106.609L100.281 108.625L101.805 110.102L104.172 110.383H110.453L112.844 110.102L114.344 108.625L114.672 106.609V91ZM137.734 88.8906C139.312 88.8906 140.742 89.125 142.023 89.5938C143.305 90.0625 144.391 90.7031 145.281 91.5156C146.188 92.3281 146.883 93.2812 147.367 94.375C147.852 95.4531 148.094 96.6016 148.094 97.8203V112.07C148.094 113.289 147.852 114.445 147.367 115.539C146.883 116.617 146.188 117.562 145.281 118.375C144.391 119.188 143.305 119.828 142.023 120.297C140.742 120.766 139.312 121 137.734 121H130.516C128.938 121 127.508 120.766 126.227 120.297C124.945 119.828 123.852 119.188 122.945 118.375C122.055 117.562 121.367 116.617 120.883 115.539C120.398 114.445 120.156 113.289 120.156 112.07V97.8203C120.156 96.6016 120.398 95.4531 120.883 94.375C121.367 93.2812 122.055 92.3281 122.945 91.5156C123.852 90.7031 124.945 90.0625 126.227 89.5938C127.508 89.125 128.938 88.8906 130.516 88.8906H137.734ZM142.609 94.7969L142.281 92.8281L140.805 91.3281L138.391 91H127.938V110.383H138.391L140.805 110.102L142.281 108.625L142.609 106.609V94.7969ZM139.797 107.664L138.25 107.898H130.375V93.4844H138.25L139.891 93.7422L140.125 95.125V106.352L139.797 107.664ZM169.211 107.898H159.859V101.945H167.688V99.4844H159.859V93.4844H168.883V91H157.422V110.383H169.211V107.898ZM165.484 88.8906C167.062 88.8906 168.492 89.125 169.773 89.5938C171.055 90.0625 172.141 90.7031 173.031 91.5156C173.938 92.3281 174.633 93.2812 175.117 94.375C175.602 95.4531 175.844 96.6016 175.844 97.8203V112.07C175.844 113.289 175.602 114.445 175.117 115.539C174.633 116.617 173.938 117.562 173.031 118.375C172.141 119.188 171.055 119.828 169.773 120.297C168.492 120.766 167.062 121 165.484 121H158.266C156.688 121 155.258 120.766 153.977 120.297C152.695 119.828 151.602 119.188 150.695 118.375C149.805 117.562 149.117 116.617 148.633 115.539C148.148 114.445 147.906 113.289 147.906 112.07V97.8203C147.906 96.6016 148.148 95.4531 148.633 94.375C149.117 93.2812 149.805 92.3281 150.695 91.5156C151.602 90.7031 152.695 90.0625 153.977 89.5938C155.258 89.125 156.688 88.8906 158.266 88.8906H165.484ZM192.93 91H187.281L184.867 91.2812L183.391 92.7812L183.039 94.75V106.656L183.391 108.625L184.914 110.102L187.281 110.383H192.93L195.672 110.055L195.086 107.523L192.883 107.898H187.422L185.875 107.664L185.547 106.258V94.9844L185.781 93.6953L187.422 93.4375H192.789L195.203 93.8359L195.672 91.3281L192.93 91ZM193.234 88.8906C194.812 88.8906 196.242 89.125 197.523 89.5938C198.805 90.0625 199.891 90.7031 200.781 91.5156C201.688 92.3281 202.383 93.2812 202.867 94.375C203.352 95.4531 203.594 96.6016 203.594 97.8203V112.07C203.594 113.289 203.352 114.445 202.867 115.539C202.383 116.617 201.688 117.562 200.781 118.375C199.891 119.188 198.805 119.828 197.523 120.297C196.242 120.766 194.812 121 193.234 121H186.016C184.438 121 183.008 120.766 181.727 120.297C180.445 119.828 179.352 119.188 178.445 118.375C177.555 117.562 176.867 116.617 176.383 115.539C175.898 114.445 175.656 113.289 175.656 112.07V97.8203C175.656 96.6016 175.898 95.4531 176.383 94.375C176.867 93.2812 177.555 92.3281 178.445 91.5156C179.352 90.7031 180.445 90.0625 181.727 89.5938C183.008 89.125 184.438 88.8906 186.016 88.8906H193.234ZM225.859 91H223.422V99.2031H213.672V91H211.188V110.383H213.672V101.664H223.422V110.383H225.859V91ZM220.984 88.8906C222.562 88.8906 223.992 89.125 225.273 89.5938C226.555 90.0625 227.641 90.7031 228.531 91.5156C229.438 92.3281 230.133 93.2812 230.617 94.375C231.102 95.4531 231.344 96.6016 231.344 97.8203V112.07C231.344 113.289 231.102 114.445 230.617 115.539C230.133 116.617 229.438 117.562 228.531 118.375C227.641 119.188 226.555 119.828 225.273 120.297C223.992 120.766 222.562 121 220.984 121H213.766C212.188 121 210.758 120.766 209.477 120.297C208.195 119.828 207.102 119.188 206.195 118.375C205.305 117.562 204.617 116.617 204.133 115.539C203.648 114.445 203.406 113.289 203.406 112.07V97.8203C203.406 96.6016 203.648 95.4531 204.133 94.375C204.617 93.2812 205.305 92.3281 206.195 91.5156C207.102 90.7031 208.195 90.0625 209.477 89.5938C210.758 89.125 212.188 88.8906 213.766 88.8906H220.984ZM248.734 88.8906C250.312 88.8906 251.742 89.125 253.023 89.5938C254.305 90.0625 255.391 90.7031 256.281 91.5156C257.188 92.3281 257.883 93.2812 258.367 94.375C258.852 95.4531 259.094 96.6016 259.094 97.8203V112.07C259.094 113.289 258.852 114.445 258.367 115.539C257.883 116.617 257.188 117.562 256.281 118.375C255.391 119.188 254.305 119.828 253.023 120.297C251.742 120.766 250.312 121 248.734 121H241.516C239.938 121 238.508 120.766 237.227 120.297C235.945 119.828 234.852 119.188 233.945 118.375C233.055 117.562 232.367 116.617 231.883 115.539C231.398 114.445 231.156 113.289 231.156 112.07V97.8203C231.156 96.6016 231.398 95.4531 231.883 94.375C232.367 93.2812 233.055 92.3281 233.945 91.5156C234.852 90.7031 235.945 90.0625 237.227 89.5938C238.508 89.125 239.938 88.8906 241.516 88.8906H248.734ZM250.891 110.383H253.562L251.711 92.9219L250.258 91.4688L247.141 91H244.633L241.516 91.4688L240.086 92.9219L238.164 110.383H240.953L241.328 105.391L241.562 103.234H250.211L250.445 105.391L250.891 110.383ZM249.25 93.8359C249.359 95.1016 249.484 96.2969 249.625 97.4219C249.766 98.5469 249.898 99.7344 250.023 100.984H241.773L242.477 93.8359C242.914 93.7891 243.289 93.7344 243.602 93.6719C243.93 93.6094 244.312 93.5469 244.75 93.4844H247.047L249.25 93.8359ZM280.938 91H267.391V93.4844H272.922V110.383H275.43V93.4844H280.938V91ZM276.484 88.8906C278.062 88.8906 279.492 89.125 280.773 89.5938C282.055 90.0625 283.141 90.7031 284.031 91.5156C284.938 92.3281 285.633 93.2812 286.117 94.375C286.602 95.4531 286.844 96.6016 286.844 97.8203V112.07C286.844 113.289 286.602 114.445 286.117 115.539C285.633 116.617 284.938 117.562 284.031 118.375C283.141 119.188 282.055 119.828 280.773 120.297C279.492 120.766 278.062 121 276.484 121H269.266C267.688 121 266.258 120.766 264.977 120.297C263.695 119.828 262.602 119.188 261.695 118.375C260.805 117.562 260.117 116.617 259.633 115.539C259.148 114.445 258.906 113.289 258.906 112.07V97.8203C258.906 96.6016 259.148 95.4531 259.633 94.375C260.117 93.2812 260.805 92.3281 261.695 91.5156C262.602 90.7031 263.695 90.0625 264.977 89.5938C266.258 89.125 267.688 88.8906 269.266 88.8906H276.484Z" fill="#4D6FAF"/>
<path fill-rule="evenodd" clip-rule="evenodd" d="M327.212 70.2349C326.685 69.9705 324.091 68.6927 323.607 68.5161C323.123 68.3399 322.772 68.2518 322.42 68.7806C322.068 69.3093 321.057 70.4993 320.749 70.852C320.442 71.2045 320.134 71.2487 319.606 70.9841C319.078 70.7198 317.378 70.162 315.363 68.3621C313.795 66.9613 312.736 65.2314 312.428 64.7025C312.12 64.1736 312.395 63.8878 312.659 63.6244C312.897 63.3876 313.187 63.0073 313.451 62.6988C313.714 62.3904 313.802 62.1699 313.978 61.8176C314.154 61.4648 314.066 61.1565 313.934 60.8921C313.802 60.6276 312.747 58.0273 312.307 56.9694C311.879 55.9394 311.444 56.079 311.12 56.0626C310.813 56.0473 310.461 56.0441 310.109 56.0441C309.757 56.0441 309.186 56.1763 308.702 56.705C308.218 57.2339 306.855 58.5121 306.855 61.1121C306.855 63.7126 308.746 66.2244 309.01 66.577C309.274 66.9297 312.73 72.2656 318.023 74.5538C319.282 75.0982 320.265 75.4232 321.031 75.6666C322.295 76.0688 323.445 76.012 324.354 75.8759C325.368 75.7244 327.476 74.5981 327.916 73.3642C328.356 72.1299 328.356 71.0722 328.224 70.852C328.092 70.6316 327.74 70.4993 327.212 70.2349ZM317.585 83.396H317.578C314.429 83.3948 311.34 82.5476 308.645 80.9466L308.004 80.5657L301.361 82.3104L303.134 75.8258L302.717 75.1609C300.96 72.363 300.032 69.1294 300.034 65.8089C300.038 56.1201 307.911 48.2375 317.592 48.2375C322.28 48.2391 326.687 50.0694 330.001 53.3911C333.314 56.7125 335.138 61.1276 335.136 65.8231C335.132 75.5127 327.259 83.396 317.585 83.396ZM332.523 50.867C328.536 46.8707 323.234 44.6689 317.585 44.6666C305.946 44.6666 296.473 54.1506 296.468 65.8076C296.467 69.534 297.439 73.171 299.287 76.3775L296.291 87.3333L307.485 84.3933C310.57 86.0776 314.042 86.9654 317.577 86.9666H317.585C329.223 86.9666 338.697 77.4817 338.702 65.8245C338.704 60.1753 336.509 54.8633 332.523 50.867Z" fill="#4D6FAF"/>
</svg>
