<svg width="97" height="64" viewBox="0 0 97 64" fill="none" xmlns="http://www.w3.org/2000/svg">
<g id="WhatsApp-Black&#38;White-Logo.wine 1">
<path id="Vector" fill-rule="evenodd" clip-rule="evenodd" d="M58.2123 36.2349C57.6847 35.9705 55.0907 34.6927 54.607 34.5161C54.1234 34.3399 53.7717 34.2518 53.4199 34.7806C53.0682 35.3093 52.057 36.4993 51.7492 36.852C51.4415 37.2045 51.1337 37.2487 50.606 36.9841C50.0784 36.7198 48.3783 36.162 46.3631 34.3621C44.7945 32.9613 43.7356 31.2314 43.4279 30.7025C43.12 30.1736 43.3949 29.8878 43.6591 29.6244C43.8966 29.3876 44.1869 29.0073 44.4506 28.6988C44.7144 28.3904 44.8024 28.1699 44.9782 27.8176C45.1541 27.4648 45.0662 27.1565 44.9342 26.8921C44.8024 26.6276 43.7471 24.0273 43.3074 22.9694C42.8791 21.9394 42.4442 22.079 42.1203 22.0626C41.8129 22.0473 41.4608 22.0441 41.1091 22.0441C40.7573 22.0441 40.1857 22.1763 39.702 22.705C39.2185 23.2339 37.8554 24.5121 37.8554 27.1121C37.8554 29.7126 39.7459 32.2244 40.0098 32.577C40.2737 32.9297 43.7303 38.2656 49.0233 40.5538C50.2821 41.0982 51.2649 41.4232 52.0312 41.6666C53.2951 42.0688 54.4453 42.012 55.3545 41.8759C56.3682 41.7244 58.4762 40.5981 58.9158 39.3642C59.3555 38.1299 59.3555 37.0722 59.2235 36.852C59.0917 36.6316 58.74 36.4993 58.2123 36.2349ZM48.5852 49.396H48.5781C45.4287 49.3948 42.3398 48.5476 39.645 46.9466L39.0041 46.5657L32.3614 48.3104L34.1344 41.8258L33.7172 41.1609C31.9602 38.363 31.0323 35.1294 31.0336 31.8089C31.0375 22.1201 38.9111 14.2375 48.5922 14.2375C53.2801 14.2391 57.6868 16.0694 61.0007 19.3911C64.3143 22.7125 66.1381 27.1276 66.1363 31.8231C66.1324 41.5127 58.259 49.396 48.5852 49.396ZM63.5226 16.867C59.5358 12.8707 54.2339 10.6689 48.585 10.6666C36.9458 10.6666 27.473 20.1506 27.4683 31.8076C27.4667 35.534 28.4391 39.171 30.2869 42.3775L27.2913 53.3333L38.4854 50.3933C41.5698 52.0776 45.0424 52.9654 48.5766 52.9666H48.5853C60.2232 52.9666 69.6969 43.4817 69.7017 31.8245C69.7038 26.1753 67.5093 20.8633 63.5226 16.867Z" fill="#4D6FAF"/>
</g>
</svg>
